<?xml version="1.0" encoding="UTF-8" standalone="no"?>


<svg width="167.23489mm" height="30.799089mm" viewBox="0 0 632.06891 116.40601" version="1.1" id="svg1" xml:space="preserve" xmlns="http://www.w3.org/2000/svg" xmlns:svg="http://www.w3.org/2000/svg"><defs id="defs1"></defs><g id="layer1" transform="translate(-59.632955,-400.21905)"><g id="g5"><path style="font-weight:bold;font-size:119.295px;font-family:&#39;space grotesk&#39;;-inkscape-font-specification:&#39;space grotesk Bold&#39;;text-align:end;letter-spacing:0px;word-spacing:-16.795px;text-anchor:end;fill:#ffffff;stroke-width:51.1265;stroke-linecap:round;stroke-linejoin:round;stroke-dashoffset:85" d="M 641.35935,516.62505 V 503.5026 H 673.569 q 3.34026,0 3.34026,-3.57885 v -14.91187 h -2.14731 q -0.95436,2.02801 -2.98238,4.05603 -2.02801,2.02801 -5.48757,3.34026 -3.45955,1.31224 -8.82783,1.31224 -6.91911,0 -12.16809,-3.10167 -5.12968,-3.22096 -7.99276,-8.82783 -2.86308,-5.60686 -2.86308,-12.88386 v -35.31131 h 15.03117 v 34.11836 q 0,6.68052 3.22096,10.02078 3.34026,3.34026 9.42431,3.34026 6.91911,0 10.73655,-4.53321 3.81744,-4.6525 3.81744,-12.88386 v -30.06233 h 15.03117 v 69.66827 q 0,6.08405 -3.57885,9.6629 -3.57885,3.69814 -9.5436,3.69814 z" id="path21"></path><path style="font-weight:bold;font-size:119.295px;font-family:&#39;space grotesk&#39;;-inkscape-font-specification:&#39;space grotesk Bold&#39;;text-align:end;letter-spacing:0px;word-spacing:-16.795px;text-anchor:end;fill:#ffffff;stroke-width:51.1265;stroke-linecap:round;stroke-linejoin:round;stroke-dashoffset:85" d="m 596.68685,492.76605 v -46.76364 h -15.03117 v -12.40667 h 15.03117 V 422.6206 q 0,-6.08405 3.57885,-9.6629 3.69815,-3.69814 9.5436,-3.69814 h 15.50835 v 12.40668 h -10.25937 q -3.34026,0 -3.34026,3.57885 v 8.35065 h 15.50835 v 12.40667 h -15.50835 v 46.76364 z" id="path20"></path><path style="font-weight:bold;font-size:119.295px;font-family:&#39;space grotesk&#39;;-inkscape-font-specification:&#39;space grotesk Bold&#39;;text-align:end;letter-spacing:0px;word-spacing:-16.795px;text-anchor:end;fill:#f2c744;fill-opacity:1;stroke-width:51.1265;stroke-linecap:round;stroke-linejoin:round;stroke-dashoffset:85" d="m 562.6877,426.67663 q -4.05603,0 -6.91911,-2.62449 -2.74378,-2.62449 -2.74378,-6.91911 0,-4.29462 2.74378,-6.91911 2.86308,-2.62449 6.91911,-2.62449 4.17533,0 6.91911,2.62449 2.74379,2.62449 2.74379,6.91911 0,4.29462 -2.74379,6.91911 -2.74378,2.62449 -6.91911,2.62449 z" id="path19"></path><path style="font-weight:bold;font-size:119.295px;font-family:&#39;space grotesk&#39;;-inkscape-font-specification:&#39;space grotesk Bold&#39;;text-align:end;letter-spacing:0px;word-spacing:-16.795px;text-anchor:end;fill:#ffffff;stroke-width:51.1265;stroke-linecap:round;stroke-linejoin:round;stroke-dashoffset:85" d="m 555.17212,492.76605 v -59.17031 h 15.03117 v 59.17031 z" id="path18"></path><path style="font-weight:bold;font-size:119.295px;font-family:&#39;space grotesk&#39;;-inkscape-font-specification:&#39;space grotesk Bold&#39;;text-align:end;letter-spacing:0px;word-spacing:-16.795px;text-anchor:end;fill:#ffffff;stroke-width:51.1265;stroke-linecap:round;stroke-linejoin:round;stroke-dashoffset:85" d="m 523.43973,492.76605 q -5.84546,0 -9.5436,-3.57885 -3.57885,-3.69814 -3.57885,-9.78219 v -33.4026 H 495.5247 v -12.40667 h 14.79258 v -18.37143 h 15.03117 v 18.37143 h 16.22412 v 12.40667 h -16.22412 v 30.77811 q 0,3.57885 3.34026,3.57885 h 11.45232 v 12.40668 z" id="path17"></path><path style="font-weight:bold;font-size:119.295px;font-family:&#39;space grotesk&#39;;-inkscape-font-specification:&#39;space grotesk Bold&#39;;text-align:end;letter-spacing:0px;word-spacing:-16.795px;text-anchor:end;fill:#ffffff;stroke-width:51.1265;stroke-linecap:round;stroke-linejoin:round;stroke-dashoffset:85" d="m 428.95816,492.76605 v -59.17031 h 14.79258 v 7.75417 h 2.14731 q 1.43154,-3.10167 5.36827,-5.84546 3.93674,-2.86307 11.9295,-2.86307 6.91911,0 12.0488,3.22096 5.24898,3.10167 8.11206,8.70853 2.86308,5.48757 2.86308,12.88386 v 35.31132 h -15.03117 v -34.11837 q 0,-6.68052 -3.34026,-10.02078 -3.22097,-3.34026 -9.30501,-3.34026 -6.91911,0 -10.73655,4.65251 -3.81744,4.53321 -3.81744,12.76456 v 30.06234 z" id="path16"></path><path style="font-weight:bold;font-size:119.295px;font-family:&#39;space grotesk&#39;;-inkscape-font-specification:&#39;space grotesk Bold&#39;;text-align:end;letter-spacing:0px;word-spacing:-16.795px;text-anchor:end;fill:#ffffff;stroke-width:51.1265;stroke-linecap:round;stroke-linejoin:round;stroke-dashoffset:85" d="m 378.37719,494.43618 q -6.32263,0 -11.33302,-2.14731 -5.01039,-2.2666 -7.99276,-6.44193 -2.86308,-4.29462 -2.86308,-10.37866 0,-6.08405 2.86308,-10.14008 2.98237,-4.17532 8.11206,-6.20334 5.24898,-2.14731 11.92949,-2.14731 h 16.22412 v -3.34026 q 0,-4.17532 -2.62449,-6.79981 -2.62449,-2.74379 -8.35065,-2.74379 -5.60686,0 -8.35065,2.62449 -2.74378,2.5052 -3.57884,6.56123 l -13.83822,-4.65251 q 1.43154,-4.53321 4.53321,-8.23135 3.22096,-3.81744 8.46994,-6.08404 5.36827,-2.3859 13.00315,-2.3859 11.69091,0 18.49073,5.84545 6.79981,5.84545 6.79981,16.93989 v 22.06957 q 0,3.57885 3.34026,3.57885 h 4.7718 v 12.40668 h -10.02078 q -4.41391,0 -7.27699,-2.14731 -2.86308,-2.14731 -2.86308,-5.72616 v -0.11929 h -2.26661 q -0.47718,1.43154 -2.14731,3.81744 -1.67013,2.2666 -5.24898,4.05603 -3.57885,1.78942 -9.78219,1.78942 z m 2.62449,-12.16809 q 6.32264,0 10.25937,-3.45955 4.05603,-3.57885 4.05603,-9.42431 v -1.19295 h -15.15046 q -4.17533,0 -6.56123,1.78943 -2.38589,1.78942 -2.38589,5.01039 0,3.22096 2.50519,5.24898 2.50519,2.02801 7.27699,2.02801 z" id="path15"></path><path style="font-weight:bold;font-size:119.295px;font-family:&#39;space grotesk&#39;;-inkscape-font-specification:&#39;space grotesk Bold&#39;;text-align:end;letter-spacing:0px;word-spacing:-16.795px;text-anchor:end;fill:#ffffff;stroke-width:51.1265;stroke-linecap:round;stroke-linejoin:round;stroke-dashoffset:85" d="m 258.12782,492.76605 v -59.17031 h 14.79258 v 6.44192 h 2.14731 q 1.55083,-2.98237 5.12968,-5.12968 3.57885,-2.2666 9.42431,-2.2666 6.32263,0 10.14007,2.50519 3.81744,2.3859 5.84546,6.32263 h 2.14731 q 2.02801,-3.81744 5.72616,-6.32263 3.69814,-2.50519 10.49796,-2.50519 5.48757,0 9.90148,2.38589 4.53321,2.26661 7.1577,7.03841 2.74379,4.6525 2.74379,11.8102 v 38.89017 h -15.03117 v -37.81651 q 0,-4.8911 -2.5052,-7.277 -2.50519,-2.50519 -7.0384,-2.50519 -5.12969,0 -7.99277,3.34026 -2.74378,3.22096 -2.74378,9.30501 v 34.95343 h -15.03117 v -37.81651 q 0,-4.8911 -2.5052,-7.277 -2.50519,-2.50519 -7.0384,-2.50519 -5.12969,0 -7.99277,3.34026 -2.74378,3.22096 -2.74378,9.30501 v 34.95343 z" id="path14"></path><path style="font-weight:bold;font-size:119.295px;font-family:&#39;space grotesk&#39;;-inkscape-font-specification:&#39;space grotesk Bold&#39;;text-align:end;letter-spacing:0px;word-spacing:-16.795px;text-anchor:end;fill:#ffffff;stroke-width:51.1265;stroke-linecap:round;stroke-linejoin:round;stroke-dashoffset:85" d="m 216.25531,494.43618 q -8.82783,0 -15.62764,-3.69814 -6.68052,-3.81744 -10.49796,-10.61726 -3.69815,-6.91911 -3.69815,-16.22412 v -1.43154 q 0,-9.30501 3.69815,-16.10482 3.69814,-6.91911 10.37866,-10.61726 6.68052,-3.81743 15.50835,-3.81743 8.70854,0 15.15047,3.93673 6.44193,3.81744 10.02078,10.73655 3.57885,6.79981 3.57885,15.86623 v 5.12969 h -43.0655 q 0.23859,6.08404 4.53321,9.90148 4.29462,3.81744 10.49796,3.81744 6.32264,0 9.30501,-2.74378 2.98238,-2.74379 4.53321,-6.08405 l 12.28739,6.44193 q -1.67013,3.10167 -4.8911,6.79982 -3.10167,3.57885 -8.35065,6.20334 -5.24898,2.50519 -13.36104,2.50519 z m -14.43469,-38.0551 h 27.67644 q -0.47718,-5.12969 -4.17533,-8.23136 -3.57885,-3.10167 -9.4243,-3.10167 -6.08405,0 -9.6629,3.10167 -3.57885,3.10167 -4.41391,8.23136 z" id="path13"></path><path style="font-weight:bold;font-size:119.295px;font-family:&#39;space grotesk&#39;;-inkscape-font-specification:&#39;space grotesk Bold&#39;;text-align:end;letter-spacing:0px;word-spacing:-16.795px;text-anchor:end;fill:#ffffff;stroke-width:51.1265;stroke-linecap:round;stroke-linejoin:round;stroke-dashoffset:85" d="m 145.51327,494.43618 q -9.66289,0 -17.05918,-3.45955 -7.39629,-3.45956 -11.57161,-9.90149 -4.17533,-6.44193 -4.17533,-15.50835 v -3.34026 h 15.50835 v 3.34026 q 0,7.51559 4.6525,11.33303 4.65251,3.69814 12.64527,3.69814 8.11206,0 12.0488,-3.22096 4.05603,-3.22097 4.05603,-8.23136 0,-3.45955 -2.02802,-5.60686 -1.90872,-2.14731 -5.72616,-3.45956 -3.69814,-1.43154 -9.06642,-2.62449 l -2.74378,-0.59647 q -8.58924,-1.90872 -14.79258,-4.7718 -6.08405,-2.98238 -9.4243,-7.75418 -3.22097,-4.7718 -3.22097,-12.40667 0,-7.63488 3.57885,-13.00316 3.69814,-5.48757 10.25937,-8.35065 6.68052,-2.98237 15.62764,-2.98237 8.94713,0 15.86624,3.10167 7.0384,2.98237 10.97514,9.06642 4.05603,5.96475 4.05603,15.03117 v 3.57884 h -15.50835 v -3.57884 q 0,-4.7718 -1.90872,-7.63488 -1.78943,-2.98238 -5.24898,-4.29462 -3.45956,-1.43154 -8.23136,-1.43154 -7.1577,0 -10.61725,2.74378 -3.34026,2.62449 -3.34026,7.277 0,3.10167 1.55083,5.24897 1.67013,2.14731 4.8911,3.57885 3.22096,1.43154 8.23135,2.5052 l 2.74379,0.59647 q 8.94712,1.90872 15.50835,4.8911 6.68052,2.98237 10.37866,7.87347 3.69815,4.89109 3.69815,12.52597 0,7.63488 -3.93674,13.48034 -3.81744,5.72616 -10.97514,9.06642 -7.0384,3.22096 -16.7013,3.22096 z" id="path12"></path><text xml:space="preserve" style="font-style:normal;font-variant:normal;font-weight:bold;font-stretch:normal;font-size:101.385px;font-family:&#39;space grotesk&#39;;-inkscape-font-specification:&#39;space grotesk Bold&#39;;text-align:end;letter-spacing:0px;word-spacing:-14.2735px;writing-mode:lr-tb;direction:ltr;text-anchor:end;fill:#f2c744;fill-opacity:1;stroke-width:43.4506;stroke-linecap:round;stroke-linejoin:round;stroke-dashoffset:85" x="103.22854" y="476.866" id="text21"><tspan id="tspan21" x="103.22854" y="476.866" style="stroke-width:43.4506">{</tspan></text><rect style="fill:#ffffff;fill-opacity:1;stroke-width:20;stroke-linecap:round;stroke-linejoin:round;stroke-dashoffset:85" id="rect5" width="22.546675" height="12.40668" x="623.40912" y="433.59573" ry="0"></rect></g></g></svg>